<?xml version="1.0" standalone="no"?>
<!DOCTYPE svg PUBLIC "-//W3C//DTD SVG 20010904//EN"
 "http://www.w3.org/TR/2001/REC-SVG-20010904/DTD/svg10.dtd">
<svg version="1.0" xmlns="http://www.w3.org/2000/svg"
 width="1024.000000pt" height="1024.000000pt" viewBox="0 0 1024.000000 1024.000000"
 preserveAspectRatio="xMidYMid meet">
<metadata>
Created by potrace 1.11, written by Peter Selinger 2001-2013
</metadata>
<g transform="translate(0.000000,1024.000000) scale(0.100000,-0.100000)"
fill="#000000" stroke="none">
<path d="M4735 10229 c-919 -69 -1815 -391 -2560 -919 -1270 -902 -2051 -2282
-2165 -3825 -13 -180 -13 -550 0 -730 91 -1241 611 -2376 1490 -3255 879 -879
2014 -1399 3255 -1490 180 -13 550 -13 730 0 1241 91 2376 611 3255 1490 879
879 1399 2014 1490 3255 13 180 13 550 0 730 -91 1241 -611 2376 -1490 3255
-879 879 -2014 1399 -3255 1490 -161 11 -588 11 -750 -1z m1738 -893 c309 -79
564 -287 714 -582 99 -195 136 -350 137 -579 0 -237 -32 -383 -130 -580 -191
-388 -574 -655 -975 -681 -77 -6 -99 -10 -104 -23 -4 -9 -26 -72 -50 -141 -23
-69 -61 -174 -85 -233 -23 -60 -39 -111 -36 -114 3 -3 188 -65 412 -138 304
-100 415 -140 442 -162 44 -34 89 -120 98 -184 14 -105 -57 -227 -161 -275
-91 -43 -115 -38 -570 110 -278 90 -412 130 -416 122 -29 -51 -248 -753 -328
-1053 -218 -813 -254 -1318 -125 -1709 131 -396 417 -710 791 -866 433 -181
936 -150 1431 87 61 30 112 56 112 58 0 3 -78 51 -174 108 -96 57 -174 105
-172 106 4 5 1018 214 1021 211 1 -2 -78 -226 -176 -498 -99 -272 -180 -499
-182 -505 -2 -5 -37 91 -78 215 -40 124 -75 227 -77 230 -4 6 -17 -4 -137
-110 -756 -668 -1581 -923 -2555 -789 -366 51 -613 16 -891 -127 -128 -66
-207 -122 -305 -216 l-71 -68 -12 67 c-19 106 -87 298 -141 401 -133 253 -314
434 -581 582 -147 81 -274 159 -374 228 -682 476 -1091 1097 -1281 1947 -20
88 -37 161 -38 162 -3 3 -22 -11 -245 -173 -80 -57 -146 -104 -147 -104 -3 0
3 23 137 483 156 534 158 539 163 544 2 2 157 -168 345 -378 187 -210 340
-383 338 -384 -1 -2 -85 8 -186 21 -102 13 -186 22 -188 20 -7 -7 54 -126 115
-226 261 -424 650 -719 1064 -804 402 -83 783 1 1136 250 113 80 278 255 368
389 205 307 429 793 652 1415 68 188 218 646 224 683 3 15 -59 38 -422 157
l-425 139 -47 51 c-105 113 -103 266 5 375 56 56 121 85 189 85 22 0 212 -56
444 -131 247 -81 409 -128 415 -122 5 5 40 120 79 257 l71 248 -28 21 c-192
149 -332 352 -401 582 -42 137 -55 228 -55 375 1 261 72 496 221 725 56 85
245 276 326 330 144 94 321 164 476 190 126 21 319 13 443 -19z"/>
<path d="M6093 8720 c-111 -23 -244 -99 -318 -183 -294 -336 -138 -874 275
-948 267 -47 551 155 625 446 19 76 19 214 0 290 -52 203 -211 360 -399 394
-68 12 -122 13 -183 1z"/>
</g>
</svg>
