<?xml version="1.0" standalone="no"?>
<!DOCTYPE svg PUBLIC "-//W3C//DTD SVG 20010904//EN"
 "http://www.w3.org/TR/2001/REC-SVG-20010904/DTD/svg10.dtd">
<svg version="1.0" xmlns="http://www.w3.org/2000/svg"
 width="1024.000000pt" height="1024.000000pt" viewBox="0 0 1024.000000 1024.000000"
 preserveAspectRatio="xMidYMid meet">
<metadata>
Created by potrace 1.11, written by Peter Selinger 2001-2013
</metadata>
<g transform="translate(0.000000,1024.000000) scale(0.100000,-0.100000)"
fill="#000000" stroke="none">
<path d="M4745 10229 c-556 -41 -1148 -186 -1645 -401 -1679 -729 -2844 -2283
-3064 -4088 -49 -396 -49 -844 0 -1240 138 -1136 651 -2187 1464 -3000 813
-813 1864 -1326 3000 -1464 396 -49 844 -49 1240 0 1136 138 2187 651 3000
1464 598 598 1040 1333 1281 2132 292 964 293 2003 4 2963 -243 807 -684 1543
-1285 2145 -598 598 -1333 1040 -2132 1281 -365 111 -744 180 -1133 209 -161
11 -568 11 -730 -1z m1641 -874 c458 -79 811 -432 915 -915 19 -86 23 -135 23
-275 -1 -234 -34 -384 -127 -570 -119 -239 -295 -422 -532 -552 -152 -84 -259
-117 -434 -133 -57 -5 -106 -11 -108 -14 -2 -2 -30 -77 -62 -167 -33 -90 -73
-199 -90 -243 -18 -43 -30 -81 -27 -83 2 -3 181 -62 398 -132 216 -70 407
-135 424 -144 49 -25 103 -95 121 -156 42 -145 -33 -286 -185 -344 -23 -10
-57 -17 -76 -17 -18 0 -220 61 -448 135 -229 74 -418 135 -420 135 -3 0 -11
-19 -17 -42 -7 -24 -17 -47 -21 -53 -4 -5 -39 -107 -78 -225 -196 -600 -325
-1109 -393 -1550 -30 -195 -33 -548 -6 -685 94 -476 369 -846 772 -1041 183
-88 318 -125 533 -146 292 -27 669 49 957 194 55 27 104 53 108 58 5 4 -47 40
-115 80 -68 40 -144 86 -170 103 -45 30 -46 33 -25 39 38 13 990 209 998 206
4 -2 -74 -229 -174 -506 -99 -276 -182 -500 -185 -497 -7 6 -45 117 -103 293
l-50 153 -48 -43 c-180 -162 -434 -353 -613 -462 -639 -385 -1274 -506 -2073
-395 -323 45 -568 7 -845 -131 -130 -65 -215 -124 -311 -216 l-65 -64 -28 113
c-71 283 -191 503 -376 687 -108 108 -189 166 -375 270 -855 476 -1370 1143
-1595 2065 -21 88 -42 179 -45 203 -4 23 -9 42 -11 42 -7 0 -190 -127 -292
-203 -52 -38 -96 -66 -99 -63 -5 5 226 807 275 952 l27 81 343 -385 c189 -211
342 -386 340 -388 -2 -2 -34 1 -71 6 -37 6 -91 12 -120 14 -29 2 -80 7 -114
11 -35 4 -63 4 -63 1 0 -20 86 -182 137 -261 278 -422 666 -694 1103 -771 50
-9 145 -15 231 -15 245 1 445 51 647 164 275 153 456 331 625 615 164 274 307
583 492 1062 63 165 315 906 315 928 0 9 -126 52 -714 242 -116 38 -134 47
-176 89 -56 56 -80 118 -80 206 0 108 60 194 171 245 80 36 115 29 499 -94
195 -62 378 -120 407 -129 l52 -15 16 52 c8 28 41 142 72 254 l57 203 -35 27
c-193 149 -344 382 -411 637 -29 112 -31 132 -32 300 -1 193 4 231 56 400 57
190 167 372 307 515 105 106 167 153 291 218 232 123 487 168 726 127z"/>
<path d="M6051 8704 c-183 -49 -336 -198 -397 -388 -33 -103 -38 -249 -10
-341 63 -212 222 -358 423 -387 246 -35 507 146 593 413 20 60 24 94 24 184
-1 166 -43 273 -153 389 -65 68 -118 101 -202 127 -73 23 -200 24 -278 3z"/>
</g>
</svg>
